# xmcd CD database file
#
# Track frame offsets:
#	150
#	15843
#	40321
#	56266
#	71675
#	92604
#	107942
#	126915
#	145438
#	159864
#
# Disc length: 2321 seconds
#
# Revision: 0
# Processed by: cddbd v1.5.1PL0 Copyright (c) Steve Scherf et al.
# Submitted via: CDex 1.51
#
DISCID=7e090f0a
DTITLE=Chris Connor - Haunted Heart
DYEAR=2001
DGENRE=Country
TTITLE0=01 By Myself
TTITLE1=02 Haunted Heart
TTITLE2=03 Snowfall
TTITLE3=04 But Not For Me
TTITLE4=05 Stairway To The Stars
TTITLE5=06  Key Largo
TTITLE6=07 Only The Lonely
TTITLE7=08 Day In Day Out
TTITLE8=09 I Wished On The Moon
TTITLE9=10 Drinking Again 
EXTD=YEAR: 2001
EXTT0=
EXTT1=
EXTT2=
EXTT3=
EXTT4=
EXTT5=
EXTT6=
EXTT7=
EXTT8=
EXTT9=
PLAYORDER=
